<svg width="18" height="19" viewBox="0 0 18 19" fill="none" xmlns="http://www.w3.org/2000/svg">
<path d="M0 6.68425C0 4.89751 -5.36442e-08 4.00509 0.5274 3.44993C1.0548 2.89478 1.9026 2.89478 3.6 2.89478H14.4C16.0974 2.89478 16.9452 2.89478 17.4726 3.44993C18 4.00509 18 4.89751 18 6.68425C18 7.13046 18 7.35404 17.8686 7.4933C17.7363 7.63162 17.523 7.63162 17.1 7.63162H0.9C0.4761 7.63162 0.2637 7.63162 0.1314 7.4933C-8.04663e-08 7.35404 0 7.12951 0 6.68425ZM0 15.2106C0 16.9973 -5.36442e-08 17.8897 0.5274 18.4449C1.0548 19 1.9026 19 3.6 19H14.4C16.0974 19 16.9452 19 17.4726 18.4449C18 17.8897 18 16.9973 18 15.2106V10.4737C18 10.0275 18 9.80393 17.8686 9.66467C17.7363 9.52635 17.523 9.52635 17.1 9.52635H0.9C0.4761 9.52635 0.2637 9.52635 0.1314 9.66467C-8.04663e-08 9.80393 0 10.0285 0 10.4737V15.2106Z" fill="#1564C0" fill-opacity="0.68"/>
<path d="M4.5 1V3.84211M13.5 1V3.84211" stroke="#1564C0" stroke-opacity="0.68" stroke-width="2" stroke-linecap="round"/>
</svg>
