<svg width="23" height="23" viewBox="0 0 23 23" fill="none" xmlns="http://www.w3.org/2000/svg">
    <path fill-rule="evenodd" clip-rule="evenodd" d="M0 1.91667C0 1.40833 0.173086 0.920824 0.481182 0.561379C0.789277 0.201934 1.20714 0 1.64286 0H21.3571C21.7929 0 22.2107 0.201934 22.5188 0.561379C22.8269 0.920824 23 1.40833 23 1.91667C23 2.425 22.8269 2.91251 22.5188 3.27195C22.2107 3.6314 21.7929 3.83333 21.3571 3.83333H1.64286C1.20714 3.83333 0.789277 3.6314 0.481182 3.27195C0.173086 2.91251 0 2.425 0 1.91667ZM0 11.5C0 10.9917 0.173086 10.5042 0.481182 10.1447C0.789277 9.78527 1.20714 9.58333 1.64286 9.58333H11.5C11.9357 9.58333 12.3536 9.78527 12.6617 10.1447C12.9698 10.5042 13.1429 10.9917 13.1429 11.5C13.1429 12.0083 12.9698 12.4958 12.6617 12.8553C12.3536 13.2147 11.9357 13.4167 11.5 13.4167H1.64286C1.20714 13.4167 0.789277 13.2147 0.481182 12.8553C0.173086 12.4958 0 12.0083 0 11.5ZM0 21.0833C0 20.575 0.173086 20.0875 0.481182 19.728C0.789277 19.3686 1.20714 19.1667 1.64286 19.1667H21.3571C21.7929 19.1667 22.2107 19.3686 22.5188 19.728C22.8269 20.0875 23 20.575 23 21.0833C23 21.5917 22.8269 22.0792 22.5188 22.4386C22.2107 22.7981 21.7929 23 21.3571 23H1.64286C1.20714 23 0.789277 22.7981 0.481182 22.4386C0.173086 22.0792 0 21.5917 0 21.0833Z" fill="#023B72"/>
</svg>
